<svg width="30" height="30" viewBox="0 0 30 30" fill="none" xmlns="http://www.w3.org/2000/svg">
<mask id="mask0_899_159" style="mask-type:alpha" maskUnits="userSpaceOnUse" x="0" y="0" width="30" height="30">
<rect width="30" height="30" fill="#D9D9D9"/>
</mask>
<g mask="url(#mask0_899_159)">
<path d="M22.5 28.75V25H18.75V22.5H22.5V18.75H25V22.5H28.75V25H25V28.75H22.5ZM2.5 25V17.5H1.25V15L2.5 8.75H21.25L22.5 15V17.5H21.25V21.25H18.75V17.5H13.75V25H2.5ZM5 22.5H11.25V17.5H5V22.5ZM2.5 7.5V5H21.25V7.5H2.5ZM3.8125 15H19.9375L19.1875 11.25H4.5625L3.8125 15Z" fill="#193368"/>
</g>
</svg>
