<svg width="32" height="32" viewBox="0 0 32 32" fill="none" xmlns="http://www.w3.org/2000/svg">
<g clip-path="url(#clip0_1077_1503)">
<path d="M0 24V22.1223C0 21.2323 0.470333 20.508 1.411 19.9493C2.35189 19.3904 3.588 19.111 5.11933 19.111C5.396 19.111 5.66189 19.1166 5.917 19.1277C6.17233 19.1388 6.42222 19.164 6.66667 19.2033C6.44444 19.616 6.27778 20.0394 6.16667 20.4737C6.05556 20.9081 6 21.3613 6 21.8333V24H0ZM8 24V21.8333C8 21.1222 8.19444 20.4722 8.58333 19.8833C8.97222 19.2944 9.52222 18.7778 10.2333 18.3333C10.9444 17.8889 11.7944 17.5556 12.7833 17.3333C13.7722 17.1111 14.8444 17 16 17C17.1778 17 18.2611 17.1111 19.25 17.3333C20.2389 17.5556 21.0889 17.8889 21.8 18.3333C22.5111 18.7778 23.0556 19.2944 23.4333 19.8833C23.8111 20.4722 24 21.1222 24 21.8333V24H8ZM26 24V21.8333C26 21.3464 25.95 20.8877 25.85 20.457C25.75 20.0263 25.5926 19.609 25.3777 19.205C25.6221 19.1646 25.8697 19.1388 26.1203 19.1277C26.3712 19.1166 26.6274 19.111 26.889 19.111C28.4223 19.111 29.6574 19.3852 30.5943 19.9337C31.5314 20.4821 32 21.2117 32 22.1223V24H26ZM10.2777 21.7777H21.7333V21.6443C21.6593 20.9481 21.0797 20.3703 19.9943 19.911C18.9092 19.4519 17.5778 19.2223 16 19.2223C14.4222 19.2223 13.0908 19.4519 12.0057 19.911C10.9203 20.3703 10.3443 20.9556 10.2777 21.6667V21.7777ZM5.10133 18C4.43378 18 3.86111 17.7607 3.38333 17.282C2.90556 16.8033 2.66667 16.2279 2.66667 15.5557C2.66667 14.8741 2.906 14.2963 3.38467 13.8223C3.86333 13.3481 4.43878 13.111 5.111 13.111C5.79256 13.111 6.37033 13.3481 6.84433 13.8223C7.31856 14.2963 7.55567 14.8773 7.55567 15.5653C7.55567 16.2329 7.31856 16.8056 6.84433 17.2833C6.37033 17.7611 5.78933 18 5.10133 18ZM26.8793 18C26.2116 18 25.6388 17.7607 25.161 17.282C24.6832 16.8033 24.4443 16.2279 24.4443 15.5557C24.4443 14.8741 24.6838 14.2963 25.1627 13.8223C25.6413 13.3481 26.2168 13.111 26.889 13.111C27.5703 13.111 28.1481 13.3481 28.6223 13.8223C29.0963 14.2963 29.3333 14.8773 29.3333 15.5653C29.3333 16.2329 29.0963 16.8056 28.6223 17.2833C28.1481 17.7611 27.5671 18 26.8793 18ZM16 16C14.8889 16 13.9444 15.6111 13.1667 14.8333C12.3889 14.0556 12 13.1111 12 12C12 10.8667 12.3889 9.91667 13.1667 9.15C13.9444 8.38333 14.8889 8 16 8C17.1333 8 18.0833 8.38333 18.85 9.15C19.6167 9.91667 20 10.8667 20 12C20 13.1111 19.6167 14.0556 18.85 14.8333C18.0833 15.6111 17.1333 16 16 16ZM16.0077 13.7777C16.5137 13.7777 16.9352 13.6066 17.2723 13.2643C17.6092 12.9221 17.7777 12.4981 17.7777 11.9923C17.7777 11.4863 17.6081 11.0648 17.269 10.7277C16.9297 10.3908 16.5092 10.2223 16.0077 10.2223C15.5063 10.2223 15.0834 10.3919 14.739 10.731C14.3946 11.0703 14.2223 11.4908 14.2223 11.9923C14.2223 12.4937 14.3934 12.9166 14.7357 13.261C15.0779 13.6054 15.5019 13.7777 16.0077 13.7777Z" fill="#193368"/>
</g>
<defs>
<clipPath id="clip0_1077_1503">
<rect width="32" height="32" fill="white"/>
</clipPath>
</defs>
</svg>
