<svg width="25" height="25" viewBox="0 0 25 25" fill="none" xmlns="http://www.w3.org/2000/svg">
<path d="M11.4585 4.16663H4.16683C3.61429 4.16663 3.08439 4.38612 2.69369 4.77682C2.30299 5.16752 2.0835 5.69742 2.0835 6.24996V20.8333C2.0835 21.3858 2.30299 21.9157 2.69369 22.3064C3.08439 22.6971 3.61429 22.9166 4.16683 22.9166H18.7502C19.3027 22.9166 19.8326 22.6971 20.2233 22.3064C20.614 21.9157 20.8335 21.3858 20.8335 20.8333V13.5416" stroke="#193368" stroke-width="2" stroke-linecap="round" stroke-linejoin="round"/>
<path d="M19.271 2.60412C19.6854 2.18972 20.2474 1.95691 20.8335 1.95691C21.4195 1.95691 21.9816 2.18972 22.396 2.60412C22.8104 3.01852 23.0432 3.58057 23.0432 4.16662C23.0432 4.75267 22.8104 5.31472 22.396 5.72912L12.5002 15.625L8.3335 16.6666L9.37516 12.5L19.271 2.60412Z" stroke="#193368" stroke-width="2" stroke-linecap="round" stroke-linejoin="round"/>
</svg>
