<svg width="40" height="40" viewBox="0 0 40 40" fill="none" xmlns="http://www.w3.org/2000/svg">
<path d="M18.29 11.8602L9.82002 26.0002C9.64539 26.3026 9.55299 26.6455 9.55201 26.9947C9.55103 27.3439 9.64151 27.6873 9.81445 27.9907C9.98738 28.2941 10.2367 28.547 10.5377 28.7241C10.8387 28.9012 11.1808 28.9964 11.53 29.0002H28.47C28.8192 28.9964 29.1613 28.9012 29.4623 28.7241C29.7633 28.547 30.0127 28.2941 30.1856 27.9907C30.3585 27.6873 30.449 27.3439 30.448 26.9947C30.4471 26.6455 30.3547 26.3026 30.18 26.0002L21.71 11.8602C21.5318 11.5663 21.2807 11.3233 20.9812 11.1547C20.6817 10.9861 20.3438 10.8975 20 10.8975C19.6563 10.8975 19.3184 10.9861 19.0188 11.1547C18.7193 11.3233 18.4683 11.5663 18.29 11.8602Z" stroke="white" stroke-width="2" stroke-linecap="round" stroke-linejoin="round"/>
<path d="M20 17V21" stroke="white" stroke-width="2" stroke-linecap="round" stroke-linejoin="round"/>
<path d="M20 25H20.01" stroke="white" stroke-width="2" stroke-linecap="round" stroke-linejoin="round"/>
<circle cx="20" cy="20" r="19.5" stroke="white"/>
</svg>
